# xmcd
#
# Track frame offsets: 
#        150
#        12980
#        25857
#        52135
#        78409
#        104417
#        130410
#        152476
#        174584
#        199983
#        225554
#        243083
#        260634
#        282843
#        304963
#        323095
#        341219
#        355138
#
# Disc length: 4768 seconds
#
# Revision: 0
# Processed by: cddbd v1.5.2PL0 Copyright (c) Steve Scherf et al.
# Submitted via: ExactAudioCopyFreeDBPlugin 1.0
#
DISCID=03129e12
DTITLE=Jeff Beck - Jeff Beck Play-Along
DYEAR=2012
DGENRE=Blues
TTITLE0=Beck's Bolero - Demo Track
TTITLE1=Beck's Bolero - Backing Track
TTITLE2=Blue Wind - Demo Track
TTITLE3=Blue Wind - Backing Track
TTITLE4=Cause We've Ended As Lovers - Demo Track
TTITLE5=Cause We've Ended As Lovers - Backing Track
TTITLE6=Freeway Jam - Demo Track
TTITLE7=Freeway Jam - Backing Track
TTITLE8=Goodbye Pork Pie Hat - Demo Track
TTITLE9=Goodbye Pork Pie Hat - Backing Track
TTITLE10=Led Boots - Demo Track
TTITLE11=Led Boots - Backing Track
TTITLE12=People Get Ready - Demo Track
TTITLE13=People Get Ready - Backing Track
TTITLE14=You Know What I Mean - Demo Track
TTITLE15=You Know What I Mean - Backing Track
TTITLE16=Tuning Notes
TTITLE17=Non Audio Track
EXTD=
EXTT0=
EXTT1=
EXTT2=
EXTT3=
EXTT4=
EXTT5=
EXTT6=
EXTT7=
EXTT8=
EXTT9=
EXTT10=
EXTT11=
EXTT12=
EXTT13=
EXTT14=
EXTT15=
EXTT16=
EXTT17=
PLAYORDER=
